<svg xmlns="http://www.w3.org/2000/svg" xmlns:xlink="http://www.w3.org/1999/xlink" width="650" height="65.13"><rect width="650" height="65.13" rx="0" ry="0" class="a"/><svg height="65.13" viewBox="0 0 65 6.513" width="650" xmlns="http://www.w3.org/2000/svg" xmlns:xlink="http://www.w3.org/1999/xlink"><style>@keyframes k{0%{transform:translateX(0)}.1%{transform:translateX(-65px)}8.8%{transform:translateX(-130px)}9.1%{transform:translateX(-195px)}9.4%{transform:translateX(-260px)}10%{transform:translateX(-325px)}12.9%{transform:translateX(-390px)}13.9%{transform:translateX(-455px)}14.4%{transform:translateX(-520px)}15.3%{transform:translateX(-585px)}16.3%{transform:translateX(-650px)}17.9%{transform:translateX(-715px)}18.6%{transform:translateX(-780px)}19.2%{transform:translateX(-845px)}20%{transform:translateX(-910px)}20.8%{transform:translateX(-975px)}21.8%{transform:translateX(-1040px)}22.7%{transform:translateX(-1105px)}23.4%{transform:translateX(-1170px)}24.2%{transform:translateX(-1235px)}25.5%{transform:translateX(-1300px)}25.7%{transform:translateX(-1755px)}30.5%{transform:translateX(-1885px)}33.1%{transform:translateX(-1950px)}34.2%{transform:translateX(-2015px)}34.7%{transform:translateX(-2080px)}35%{transform:translateX(-2145px)}35.6%{transform:translateX(-2210px)}36.6%{transform:translateX(-2275px)}38.4%{transform:translateX(-2340px)}40.5%{transform:translateX(-2405px)}41.5%{transform:translateX(-2470px)}41.9%{transform:translateX(-2535px)}42.8%{transform:translateX(-2600px)}43.8%{transform:translateX(-2665px)}44.5%{transform:translateX(-2730px)}45.8%{transform:translateX(-2795px)}46.7%{transform:translateX(-2860px)}47.3%{transform:translateX(-2925px)}48%{transform:translateX(-2990px)}48.7%{transform:translateX(-3055px)}50.1%{transform:translateX(-3120px)}51.8%{transform:translateX(-3185px)}54%{transform:translateX(-3250px)}60.2%{transform:translateX(-3315px)}62.1%{transform:translateX(-3380px)}62.7%{transform:translateX(-3445px)}63%{transform:translateX(-3510px)}64.1%{transform:translateX(-3575px)}64.7%{transform:translateX(-3705px)}64.8%{transform:translateX(-3835px)}66.6%{transform:translateX(-3900px)}68.6%{transform:translateX(-3965px)}72.2%{transform:translateX(-4225px)}77%{transform:translateX(-4290px)}77.8%{transform:translateX(-4355px)}78.8%{transform:translateX(-4420px)}79.2%{transform:translateX(-4485px)}79.9%{transform:translateX(-4550px)}80.3%{transform:translateX(-4615px)}80.8%{transform:translateX(-4680px)}82.5%{transform:translateX(-4745px)}83.6%{transform:translateX(-4810px)}85%{transform:translateX(-4875px)}87.8%{transform:translateX(-4940px)}94%{transform:translateX(-5005px)}to{transform:translateX(-5070px)}}.a{fill:#282d35}.c,.d,.e{white-space:pre}.c{fill:#a8cc8c;font-weight:700}.d,.e{fill:#b9c0cb}.e{fill:#71bef2;font-weight:700}.f{fill:#73bef3}.f,.g,.h,.m{white-space:pre}.g{fill:#66c2cd;font-weight:700}.h,.m{fill:#d290e3}.m{fill:#b9c0cb;font-weight:700}.n{fill:#66c2cd}</style><g font-family="Monaco,Consolas,Menlo,'Bitstream Vera Sans Mono','Powerline Symbols',monospace" font-size="1.67"><defs><symbol id="8"><text y="1.67" class="d">:</text></symbol><symbol id="1"><text y="1.67" class="c">toastedtoad@frozentundra</text><text x="24.048" y="1.67" class="d">:</text><text x="25.05" y="1.67" class="e">~</text><text x="26.052" y="1.67" class="d">$</text></symbol><symbol id="3"><text y="1.67" class="c">toastedtoad@frozentundra</text><text x="24.048" y="1.67" class="d">:</text><text x="25.05" y="1.67" class="e">~</text><text x="26.052" y="1.67" class="d">$</text><text x="28.056" y="1.67" class="d">vim</text><text x="32.064" y="1.67" class="d">hello_world.py</text></symbol><symbol id="4"><text y="1.67" class="d">&quot;hello_world.py&quot;</text><text x="17.034" y="1.67" class="d">[New</text><text x="22.044" y="1.67" class="d">File]</text></symbol><symbol id="5"><text y="1.67" class="f">~</text></symbol><symbol id="6"><text y="1.67" class="g">print</text><text x="5.01" y="1.67" class="d">(</text><text x="6.012" y="1.67" class="h">&quot;Hello</text></symbol><symbol id="7"><text y="1.67" class="g">print</text><text x="5.01" y="1.67" class="d">(</text><text x="6.012" y="1.67" class="h">&quot;Hello</text><text x="13.026" y="1.67" class="h">World!&quot;</text><text x="20.04" y="1.67" class="d">)</text></symbol><symbol id="2"><text y="1.67" class="c">toastedtoad@frozentundra</text><text x="24.048" y="1.67" class="d">:</text><text x="25.05" y="1.67" class="e">~</text><text x="26.052" y="1.67" class="d">$</text><text x="28.056" y="1.67" class="d">vim</text></symbol><symbol id="9"><text y="1.67" class="d">:w</text></symbol><symbol id="10"><text y="1.67" class="d">:q</text></symbol><symbol id="11"><text y="1.67" class="c">toastedtoad@frozentundra</text><text x="24.048" y="1.67" class="d">:</text><text x="25.05" y="1.67" class="e">~</text><text x="26.052" y="1.67" class="d">$</text><text x="28.056" y="1.67" class="d">python</text></symbol><symbol id="12"><text y="1.67" class="c">toastedtoad@frozentundra</text><text x="24.048" y="1.67" class="d">:</text><text x="25.05" y="1.67" class="e">~</text><text x="26.052" y="1.67" class="d">$</text><text x="28.056" y="1.67" class="d">python</text><text x="35.07" y="1.67" class="d">hello_world.py</text></symbol><symbol id="13"><text y="1.67" class="d">Hello</text><text x="6.012" y="1.67" class="d">World!</text></symbol><symbol id="a"><path fill="transparent" d="M0 0h65v4H0z"/></symbol><symbol id="b"><path fill="#6f7683" d="M0 0h1.102v2.171H0z"/></symbol></defs><path class="a" d="M0 0h65v6.513H0z"/><g style="animation-duration:16.643868s;animation-iteration-count:infinite;animation-name:k;animation-timing-function:steps(1,end)"><svg width="5135"><svg><use xlink:href="#a"/><use xlink:href="#b" x="-.004"/></svg><svg x="65"><use xlink:href="#a"/><use xlink:href="#b" x="27.996"/><use xlink:href="#1"/></svg><svg x="130"><use xlink:href="#a"/><use xlink:href="#b" x="28.996"/><text y="1.67" class="c">toastedtoad@frozentundra</text><text x="24.048" y="1.67" class="d">:</text><text x="25.05" y="1.67" class="e">~</text><text x="26.052" y="1.67" class="d">$</text><text x="28.056" y="1.67" class="d">v</text></svg><svg x="195"><use xlink:href="#a"/><use xlink:href="#b" x="29.996"/><text y="1.67" class="c">toastedtoad@frozentundra</text><text x="24.048" y="1.67" class="d">:</text><text x="25.05" y="1.67" class="e">~</text><text x="26.052" y="1.67" class="d">$</text><text x="28.056" y="1.67" class="d">vi</text></svg><svg x="260"><use xlink:href="#a"/><use xlink:href="#b" x="30.996"/><use xlink:href="#2"/></svg><svg x="325"><use xlink:href="#a"/><use xlink:href="#b" x="31.996"/><use xlink:href="#2"/></svg><svg x="390"><use xlink:href="#a"/><use xlink:href="#b" x="32.996"/><text y="1.67" class="c">toastedtoad@frozentundra</text><text x="24.048" y="1.67" class="d">:</text><text x="25.05" y="1.67" class="e">~</text><text x="26.052" y="1.67" class="d">$</text><text x="28.056" y="1.67" class="d">vim</text><text x="32.064" y="1.67" class="d">h</text></svg><svg x="455"><use xlink:href="#a"/><use xlink:href="#b" x="33.996"/><text y="1.67" class="c">toastedtoad@frozentundra</text><text x="24.048" y="1.67" class="d">:</text><text x="25.05" y="1.67" class="e">~</text><text x="26.052" y="1.67" class="d">$</text><text x="28.056" y="1.67" class="d">vim</text><text x="32.064" y="1.67" class="d">he</text></svg><svg x="520"><use xlink:href="#a"/><use xlink:href="#b" x="34.996"/><text y="1.67" class="c">toastedtoad@frozentundra</text><text x="24.048" y="1.67" class="d">:</text><text x="25.05" y="1.67" class="e">~</text><text x="26.052" y="1.67" class="d">$</text><text x="28.056" y="1.67" class="d">vim</text><text x="32.064" y="1.67" class="d">hel</text></svg><svg x="585"><use xlink:href="#a"/><use xlink:href="#b" x="35.996"/><text y="1.67" class="c">toastedtoad@frozentundra</text><text x="24.048" y="1.67" class="d">:</text><text x="25.05" y="1.67" class="e">~</text><text x="26.052" y="1.67" class="d">$</text><text x="28.056" y="1.67" class="d">vim</text><text x="32.064" y="1.67" class="d">hell</text></svg><svg x="650"><use xlink:href="#a"/><use xlink:href="#b" x="36.996"/><text y="1.67" class="c">toastedtoad@frozentundra</text><text x="24.048" y="1.67" class="d">:</text><text x="25.05" y="1.67" class="e">~</text><text x="26.052" y="1.67" class="d">$</text><text x="28.056" y="1.67" class="d">vim</text><text x="32.064" y="1.67" class="d">hello</text></svg><svg x="715"><use xlink:href="#a"/><use xlink:href="#b" x="37.996"/><text y="1.67" class="c">toastedtoad@frozentundra</text><text x="24.048" y="1.67" class="d">:</text><text x="25.05" y="1.67" class="e">~</text><text x="26.052" y="1.67" class="d">$</text><text x="28.056" y="1.67" class="d">vim</text><text x="32.064" y="1.67" class="d">hello_</text></svg><svg x="780"><use xlink:href="#a"/><use xlink:href="#b" x="38.996"/><text y="1.67" class="c">toastedtoad@frozentundra</text><text x="24.048" y="1.67" class="d">:</text><text x="25.05" y="1.67" class="e">~</text><text x="26.052" y="1.67" class="d">$</text><text x="28.056" y="1.67" class="d">vim</text><text x="32.064" y="1.67" class="d">hello_w</text></svg><svg x="845"><use xlink:href="#a"/><use xlink:href="#b" x="39.996"/><text y="1.67" class="c">toastedtoad@frozentundra</text><text x="24.048" y="1.67" class="d">:</text><text x="25.05" y="1.67" class="e">~</text><text x="26.052" y="1.67" class="d">$</text><text x="28.056" y="1.67" class="d">vim</text><text x="32.064" y="1.67" class="d">hello_wo</text></svg><svg x="910"><use xlink:href="#a"/><use xlink:href="#b" x="40.996"/><text y="1.67" class="c">toastedtoad@frozentundra</text><text x="24.048" y="1.67" class="d">:</text><text x="25.05" y="1.67" class="e">~</text><text x="26.052" y="1.67" class="d">$</text><text x="28.056" y="1.67" class="d">vim</text><text x="32.064" y="1.67" class="d">hello_wor</text></svg><svg x="975"><use xlink:href="#a"/><use xlink:href="#b" x="41.996"/><text y="1.67" class="c">toastedtoad@frozentundra</text><text x="24.048" y="1.67" class="d">:</text><text x="25.05" y="1.67" class="e">~</text><text x="26.052" y="1.67" class="d">$</text><text x="28.056" y="1.67" class="d">vim</text><text x="32.064" y="1.67" class="d">hello_worl</text></svg><svg x="1040"><use xlink:href="#a"/><use xlink:href="#b" x="42.996"/><text y="1.67" class="c">toastedtoad@frozentundra</text><text x="24.048" y="1.67" class="d">:</text><text x="25.05" y="1.67" class="e">~</text><text x="26.052" y="1.67" class="d">$</text><text x="28.056" y="1.67" class="d">vim</text><text x="32.064" y="1.67" class="d">hello_world</text></svg><svg x="1105"><use xlink:href="#a"/><use xlink:href="#b" x="43.996"/><text y="1.67" class="c">toastedtoad@frozentundra</text><text x="24.048" y="1.67" class="d">:</text><text x="25.05" y="1.67" class="e">~</text><text x="26.052" y="1.67" class="d">$</text><text x="28.056" y="1.67" class="d">vim</text><text x="32.064" y="1.67" class="d">hello_world.</text></svg><svg x="1170"><use xlink:href="#a"/><use xlink:href="#b" x="44.996"/><text y="1.67" class="c">toastedtoad@frozentundra</text><text x="24.048" y="1.67" class="d">:</text><text x="25.05" y="1.67" class="e">~</text><text x="26.052" y="1.67" class="d">$</text><text x="28.056" y="1.67" class="d">vim</text><text x="32.064" y="1.67" class="d">hello_world.p</text></svg><svg x="1235"><use xlink:href="#a"/><use xlink:href="#b" x="45.996"/><use xlink:href="#3"/></svg><svg x="1300"><use xlink:href="#a"/><use xlink:href="#b" x="-.004" y="2.146"/><use xlink:href="#3"/></svg><svg x="1365"><use xlink:href="#a"/><use xlink:href="#b" x="-.004"/></svg><svg x="1430"><use xlink:href="#a"/><use xlink:href="#4" y="6.513"/></svg><svg x="1495"><use xlink:href="#a"/><use xlink:href="#4" y="6.513"/></svg><svg x="1560"><use xlink:href="#a"/><use xlink:href="#5" y="2.171"/><use xlink:href="#5" y="4.342"/><use xlink:href="#5" y="6.513"/></svg><svg x="1625"><use xlink:href="#a"/><use xlink:href="#b" x="-.004"/><use xlink:href="#5" y="2.171"/><use xlink:href="#5" y="4.342"/><text y="8.183" class="f">~</text><text x="47.094" y="8.183" class="d">0,0-1</text><text x="61.122" y="8.183" class="d">All</text></svg><svg x="1690"><use xlink:href="#a"/><use xlink:href="#5" y="2.171"/><use xlink:href="#5" y="4.342"/><use xlink:href="#5" y="6.513"/></svg><svg x="1755"><use xlink:href="#a"/><use xlink:href="#b" x="-.004"/><use xlink:href="#5" y="2.171"/><use xlink:href="#5" y="4.342"/><text y="8.183" class="d">&quot;hello_world.py&quot;</text><text x="17.034" y="8.183" class="d">[New</text><text x="22.044" y="8.183" class="d">File]</text><text x="47.094" y="8.183" class="d">0,0-1</text><text x="61.122" y="8.183" class="d">All</text></svg><svg x="1820"><use xlink:href="#a"/><use xlink:href="#5" y="2.171"/><use xlink:href="#5" y="4.342"/><text y="8.183" class="d">&quot;hello_world.py&quot;</text><text x="17.034" y="8.183" class="d">[New</text><text x="22.044" y="8.183" class="d">File]</text><text x="37.074" y="8.183" class="d">i</text><text x="47.094" y="8.183" class="d">0,0-1</text><text x="61.122" y="8.183" class="d">All</text></svg><svg x="1885"><use xlink:href="#a"/><use xlink:href="#b" x="-.004"/><use xlink:href="#5" y="2.171"/><use xlink:href="#5" y="4.342"/><text y="8.183" class="m">--</text><text x="3.006" y="8.183" class="m">INSERT</text><text x="10.02" y="8.183" class="m">--</text><text x="47.094" y="8.183" class="d">0,1</text><text x="61.122" y="8.183" class="d">All</text></svg><svg x="1950"><use xlink:href="#a"/><use xlink:href="#b" x=".996"/><text y="1.67" class="d">p</text><use xlink:href="#5" y="2.171"/><use xlink:href="#5" y="4.342"/><text y="8.183" class="m">--</text><text x="3.006" y="8.183" class="m">INSERT</text><text x="10.02" y="8.183" class="m">--</text><text x="47.094" y="8.183" class="d">1,2</text><text x="61.122" y="8.183" class="d">All</text></svg><svg x="2015"><use xlink:href="#a"/><use xlink:href="#b" x="1.996"/><text y="1.67" class="d">pr</text><use xlink:href="#5" y="2.171"/><use xlink:href="#5" y="4.342"/><text y="8.183" class="m">--</text><text x="3.006" y="8.183" class="m">INSERT</text><text x="10.02" y="8.183" class="m">--</text><text x="47.094" y="8.183" class="d">1,3</text><text x="61.122" y="8.183" class="d">All</text></svg><svg x="2080"><use xlink:href="#a"/><use xlink:href="#b" x="2.996"/><text y="1.67" class="d">pri</text><use xlink:href="#5" y="2.171"/><use xlink:href="#5" y="4.342"/><text y="8.183" class="m">--</text><text x="3.006" y="8.183" class="m">INSERT</text><text x="10.02" y="8.183" class="m">--</text><text x="47.094" y="8.183" class="d">1,4</text><text x="61.122" y="8.183" class="d">All</text></svg><svg x="2145"><use xlink:href="#a"/><use xlink:href="#b" x="3.996"/><text y="1.67" class="d">prin</text><use xlink:href="#5" y="2.171"/><use xlink:href="#5" y="4.342"/><text y="8.183" class="m">--</text><text x="3.006" y="8.183" class="m">INSERT</text><text x="10.02" y="8.183" class="m">--</text><text x="47.094" y="8.183" class="d">1,5</text><text x="61.122" y="8.183" class="d">All</text></svg><svg x="2210"><use xlink:href="#a"/><use xlink:href="#b" x="4.996"/><text y="1.67" class="g">print</text><use xlink:href="#5" y="2.171"/><use xlink:href="#5" y="4.342"/><text y="8.183" class="m">--</text><text x="3.006" y="8.183" class="m">INSERT</text><text x="10.02" y="8.183" class="m">--</text><text x="47.094" y="8.183" class="d">1,6</text><text x="61.122" y="8.183" class="d">All</text></svg><svg x="2275"><use xlink:href="#a"/><use xlink:href="#b" x="5.996"/><text y="1.67" class="g">print</text><text x="5.01" y="1.67" class="d">(</text><use xlink:href="#5" y="2.171"/><use xlink:href="#5" y="4.342"/><text y="8.183" class="m">--</text><text x="3.006" y="8.183" class="m">INSERT</text><text x="10.02" y="8.183" class="m">--</text><text x="47.094" y="8.183" class="d">1,7</text><text x="61.122" y="8.183" class="d">All</text></svg><svg x="2340"><use xlink:href="#a"/><use xlink:href="#b" x="6.996"/><text y="1.67" class="g">print</text><text x="5.01" y="1.67" class="d">(</text><text x="6.012" y="1.67" class="h">&quot;</text><use xlink:href="#5" y="2.171"/><use xlink:href="#5" y="4.342"/><text y="8.183" class="m">--</text><text x="3.006" y="8.183" class="m">INSERT</text><text x="10.02" y="8.183" class="m">--</text><text x="47.094" y="8.183" class="d">1,8</text><text x="61.122" y="8.183" class="d">All</text></svg><svg x="2405"><use xlink:href="#a"/><use xlink:href="#b" x="7.996"/><text y="1.67" class="g">print</text><text x="5.01" y="1.67" class="d">(</text><text x="6.012" y="1.67" class="h">&quot;H</text><use xlink:href="#5" y="2.171"/><use xlink:href="#5" y="4.342"/><text y="8.183" class="m">--</text><text x="3.006" y="8.183" class="m">INSERT</text><text x="10.02" y="8.183" class="m">--</text><text x="47.094" y="8.183" class="d">1,9</text><text x="61.122" y="8.183" class="d">All</text></svg><svg x="2470"><use xlink:href="#a"/><use xlink:href="#b" x="8.996"/><text y="1.67" class="g">print</text><text x="5.01" y="1.67" class="d">(</text><text x="6.012" y="1.67" class="h">&quot;He</text><use xlink:href="#5" y="2.171"/><use xlink:href="#5" y="4.342"/><text y="8.183" class="m">--</text><text x="3.006" y="8.183" class="m">INSERT</text><text x="10.02" y="8.183" class="m">--</text><text x="47.094" y="8.183" class="d">1,10</text><text x="61.122" y="8.183" class="d">All</text></svg><svg x="2535"><use xlink:href="#a"/><use xlink:href="#b" x="9.996"/><text y="1.67" class="g">print</text><text x="5.01" y="1.67" class="d">(</text><text x="6.012" y="1.67" class="h">&quot;Hel</text><use xlink:href="#5" y="2.171"/><use xlink:href="#5" y="4.342"/><text y="8.183" class="m">--</text><text x="3.006" y="8.183" class="m">INSERT</text><text x="10.02" y="8.183" class="m">--</text><text x="47.094" y="8.183" class="d">1,11</text><text x="61.122" y="8.183" class="d">All</text></svg><svg x="2600"><use xlink:href="#a"/><use xlink:href="#b" x="10.996"/><text y="1.67" class="g">print</text><text x="5.01" y="1.67" class="d">(</text><text x="6.012" y="1.67" class="h">&quot;Hell</text><use xlink:href="#5" y="2.171"/><use xlink:href="#5" y="4.342"/><text y="8.183" class="m">--</text><text x="3.006" y="8.183" class="m">INSERT</text><text x="10.02" y="8.183" class="m">--</text><text x="47.094" y="8.183" class="d">1,12</text><text x="61.122" y="8.183" class="d">All</text></svg><svg x="2665"><use xlink:href="#a"/><use xlink:href="#b" x="11.996"/><use xlink:href="#6"/><use xlink:href="#5" y="2.171"/><use xlink:href="#5" y="4.342"/><text y="8.183" class="m">--</text><text x="3.006" y="8.183" class="m">INSERT</text><text x="10.02" y="8.183" class="m">--</text><text x="47.094" y="8.183" class="d">1,13</text><text x="61.122" y="8.183" class="d">All</text></svg><svg x="2730"><use xlink:href="#a"/><use xlink:href="#b" x="12.996"/><use xlink:href="#6"/><use xlink:href="#5" y="2.171"/><use xlink:href="#5" y="4.342"/><text y="8.183" class="m">--</text><text x="3.006" y="8.183" class="m">INSERT</text><text x="10.02" y="8.183" class="m">--</text><text x="47.094" y="8.183" class="d">1,14</text><text x="61.122" y="8.183" class="d">All</text></svg><svg x="2795"><use xlink:href="#a"/><use xlink:href="#b" x="13.996"/><text y="1.67" class="g">print</text><text x="5.01" y="1.67" class="d">(</text><text x="6.012" y="1.67" class="h">&quot;Hello</text><text x="13.026" y="1.67" class="h">W</text><use xlink:href="#5" y="2.171"/><use xlink:href="#5" y="4.342"/><text y="8.183" class="m">--</text><text x="3.006" y="8.183" class="m">INSERT</text><text x="10.02" y="8.183" class="m">--</text><text x="47.094" y="8.183" class="d">1,15</text><text x="61.122" y="8.183" class="d">All</text></svg><svg x="2860"><use xlink:href="#a"/><use xlink:href="#b" x="14.996"/><text y="1.67" class="g">print</text><text x="5.01" y="1.67" class="d">(</text><text x="6.012" y="1.67" class="h">&quot;Hello</text><text x="13.026" y="1.67" class="h">Wo</text><use xlink:href="#5" y="2.171"/><use xlink:href="#5" y="4.342"/><text y="8.183" class="m">--</text><text x="3.006" y="8.183" class="m">INSERT</text><text x="10.02" y="8.183" class="m">--</text><text x="47.094" y="8.183" class="d">1,16</text><text x="61.122" y="8.183" class="d">All</text></svg><svg x="2925"><use xlink:href="#a"/><use xlink:href="#b" x="15.996"/><text y="1.67" class="g">print</text><text x="5.01" y="1.67" class="d">(</text><text x="6.012" y="1.67" class="h">&quot;Hello</text><text x="13.026" y="1.67" class="h">Wor</text><use xlink:href="#5" y="2.171"/><use xlink:href="#5" y="4.342"/><text y="8.183" class="m">--</text><text x="3.006" y="8.183" class="m">INSERT</text><text x="10.02" y="8.183" class="m">--</text><text x="47.094" y="8.183" class="d">1,17</text><text x="61.122" y="8.183" class="d">All</text></svg><svg x="2990"><use xlink:href="#a"/><use xlink:href="#b" x="16.996"/><text y="1.67" class="g">print</text><text x="5.01" y="1.67" class="d">(</text><text x="6.012" y="1.67" class="h">&quot;Hello</text><text x="13.026" y="1.67" class="h">Worl</text><use xlink:href="#5" y="2.171"/><use xlink:href="#5" y="4.342"/><text y="8.183" class="m">--</text><text x="3.006" y="8.183" class="m">INSERT</text><text x="10.02" y="8.183" class="m">--</text><text x="47.094" y="8.183" class="d">1,18</text><text x="61.122" y="8.183" class="d">All</text></svg><svg x="3055"><use xlink:href="#a"/><use xlink:href="#b" x="17.996"/><text y="1.67" class="g">print</text><text x="5.01" y="1.67" class="d">(</text><text x="6.012" y="1.67" class="h">&quot;Hello</text><text x="13.026" y="1.67" class="h">World</text><use xlink:href="#5" y="2.171"/><use xlink:href="#5" y="4.342"/><text y="8.183" class="m">--</text><text x="3.006" y="8.183" class="m">INSERT</text><text x="10.02" y="8.183" class="m">--</text><text x="47.094" y="8.183" class="d">1,19</text><text x="61.122" y="8.183" class="d">All</text></svg><svg x="3120"><use xlink:href="#a"/><use xlink:href="#b" x="18.996"/><text y="1.67" class="g">print</text><text x="5.01" y="1.67" class="d">(</text><text x="6.012" y="1.67" class="h">&quot;Hello</text><text x="13.026" y="1.67" class="h">World!</text><use xlink:href="#5" y="2.171"/><use xlink:href="#5" y="4.342"/><text y="8.183" class="m">--</text><text x="3.006" y="8.183" class="m">INSERT</text><text x="10.02" y="8.183" class="m">--</text><text x="47.094" y="8.183" class="d">1,20</text><text x="61.122" y="8.183" class="d">All</text></svg><svg x="3185"><use xlink:href="#a"/><use xlink:href="#b" x="19.996"/><text y="1.67" class="g">print</text><text x="5.01" y="1.67" class="d">(</text><text x="6.012" y="1.67" class="h">&quot;Hello</text><text x="13.026" y="1.67" class="h">World!&quot;</text><use xlink:href="#5" y="2.171"/><use xlink:href="#5" y="4.342"/><text y="8.183" class="m">--</text><text x="3.006" y="8.183" class="m">INSERT</text><text x="10.02" y="8.183" class="m">--</text><text x="47.094" y="8.183" class="d">1,21</text><text x="61.122" y="8.183" class="d">All</text></svg><svg x="3250"><use xlink:href="#a"/><use xlink:href="#b" x="20.996"/><text y="1.67" class="g">print</text><path class="n" d="M5.01 0h1v2.171h-1z"/><text x="5.01" y="1.67" class="d">(</text><text x="6.012" y="1.67" class="h">&quot;Hello</text><text x="13.026" y="1.67" class="h">World!&quot;</text><path class="n" d="M20.04 0h1v2.171h-1z"/><text x="20.04" y="1.67" class="d">)</text><use xlink:href="#5" y="2.171"/><use xlink:href="#5" y="4.342"/><text y="8.183" class="m">--</text><text x="3.006" y="8.183" class="m">INSERT</text><text x="10.02" y="8.183" class="m">--</text><text x="47.094" y="8.183" class="d">1,22</text><text x="61.122" y="8.183" class="d">All</text></svg><svg x="3315"><use xlink:href="#a"/><use xlink:href="#b" x="-.004" y="2.146"/><use xlink:href="#7"/><use xlink:href="#5" y="4.342"/><text y="8.183" class="m">--</text><text x="3.006" y="8.183" class="m">INSERT</text><text x="10.02" y="8.183" class="m">--</text><text x="47.094" y="8.183" class="d">2,1</text><text x="61.122" y="8.183" class="d">All</text></svg><svg x="3380"><use xlink:href="#a"/><use xlink:href="#7"/><use xlink:href="#5" y="4.342"/><text x="37.074" y="8.183" class="d">^[</text></svg><svg x="3445"><use xlink:href="#a"/><use xlink:href="#b" x="-.004" y="2.146"/><use xlink:href="#7"/><use xlink:href="#5" y="4.342"/><text x="47.094" y="8.183" class="d">2,0-1</text><text x="61.122" y="8.183" class="d">All</text></svg><svg x="3510"><use xlink:href="#a"/><use xlink:href="#b" x=".996" y="6.488"/><use xlink:href="#7"/><use xlink:href="#5" y="4.342"/><use xlink:href="#8" y="6.513"/></svg><svg x="3575"><use xlink:href="#a"/><use xlink:href="#b" x="1.996" y="6.488"/><use xlink:href="#7"/><use xlink:href="#5" y="4.342"/><use xlink:href="#9" y="6.513"/></svg><svg x="3640"><use xlink:href="#a"/><use xlink:href="#b" x="-.004" y="6.488"/><use xlink:href="#7"/><use xlink:href="#5" y="4.342"/><use xlink:href="#9" y="6.513"/></svg><svg x="3705"><use xlink:href="#a"/><use xlink:href="#7"/><use xlink:href="#5" y="4.342"/><text y="8.183" class="d">&quot;hello_world.py&quot;</text></svg><svg x="3770"><use xlink:href="#a"/><use xlink:href="#7"/><use xlink:href="#5" y="4.342"/><text y="8.183" class="d">&lt;llo_world.py&quot;</text><text x="15.03" y="8.183" class="d">[New]</text><text x="21.042" y="8.183" class="d">2L,</text><text x="25.05" y="8.183" class="d">23C</text><text x="29.058" y="8.183" class="d">written</text></svg><svg x="3835"><use xlink:href="#a"/><use xlink:href="#b" x="-.004" y="2.146"/><use xlink:href="#7"/><use xlink:href="#5" y="4.342"/><text y="8.183" class="d">&lt;llo_world.py&quot;</text><text x="15.03" y="8.183" class="d">[New]</text><text x="21.042" y="8.183" class="d">2L,</text><text x="25.05" y="8.183" class="d">23C</text><text x="29.058" y="8.183" class="d">written</text><text x="47.094" y="8.183" class="d">2,0-1</text><text x="61.122" y="8.183" class="d">All</text></svg><svg x="3900"><use xlink:href="#a"/><use xlink:href="#b" x=".996" y="6.488"/><use xlink:href="#7"/><use xlink:href="#5" y="4.342"/><use xlink:href="#8" y="6.513"/></svg><svg x="3965"><use xlink:href="#a"/><use xlink:href="#b" x="1.996" y="6.488"/><use xlink:href="#7"/><use xlink:href="#5" y="4.342"/><use xlink:href="#10" y="6.513"/></svg><svg x="4030"><use xlink:href="#a"/><use xlink:href="#b" x="-.004" y="6.488"/><use xlink:href="#7"/><use xlink:href="#5" y="4.342"/><use xlink:href="#10" y="6.513"/></svg><svg x="4095"><use xlink:href="#a"/><use xlink:href="#7"/><use xlink:href="#5" y="4.342"/><use xlink:href="#10" y="6.513"/></svg><svg x="4160"><use xlink:href="#a"/><use xlink:href="#b" x="-.004" y="2.146"/><use xlink:href="#3"/></svg><svg x="4225"><use xlink:href="#a"/><use xlink:href="#b" x="27.996" y="2.146"/><use xlink:href="#3"/><use xlink:href="#1" y="2.171"/></svg><svg x="4290"><use xlink:href="#a"/><use xlink:href="#b" x="28.996" y="2.146"/><use xlink:href="#3"/><text y="3.841" class="c">toastedtoad@frozentundra</text><text x="24.048" y="3.841" class="d">:</text><text x="25.05" y="3.841" class="e">~</text><text x="26.052" y="3.841" class="d">$</text><text x="28.056" y="3.841" class="d">p</text></svg><svg x="4355"><use xlink:href="#a"/><use xlink:href="#b" x="29.996" y="2.146"/><use xlink:href="#3"/><text y="3.841" class="c">toastedtoad@frozentundra</text><text x="24.048" y="3.841" class="d">:</text><text x="25.05" y="3.841" class="e">~</text><text x="26.052" y="3.841" class="d">$</text><text x="28.056" y="3.841" class="d">py</text></svg><svg x="4420"><use xlink:href="#a"/><use xlink:href="#b" x="30.996" y="2.146"/><use xlink:href="#3"/><text y="3.841" class="c">toastedtoad@frozentundra</text><text x="24.048" y="3.841" class="d">:</text><text x="25.05" y="3.841" class="e">~</text><text x="26.052" y="3.841" class="d">$</text><text x="28.056" y="3.841" class="d">pyt</text></svg><svg x="4485"><use xlink:href="#a"/><use xlink:href="#b" x="31.996" y="2.146"/><use xlink:href="#3"/><text y="3.841" class="c">toastedtoad@frozentundra</text><text x="24.048" y="3.841" class="d">:</text><text x="25.05" y="3.841" class="e">~</text><text x="26.052" y="3.841" class="d">$</text><text x="28.056" y="3.841" class="d">pyth</text></svg><svg x="4550"><use xlink:href="#a"/><use xlink:href="#b" x="32.996" y="2.146"/><use xlink:href="#3"/><text y="3.841" class="c">toastedtoad@frozentundra</text><text x="24.048" y="3.841" class="d">:</text><text x="25.05" y="3.841" class="e">~</text><text x="26.052" y="3.841" class="d">$</text><text x="28.056" y="3.841" class="d">pytho</text></svg><svg x="4615"><use xlink:href="#a"/><use xlink:href="#b" x="33.996" y="2.146"/><use xlink:href="#3"/><use xlink:href="#11" y="2.171"/></svg><svg x="4680"><use xlink:href="#a"/><use xlink:href="#b" x="34.996" y="2.146"/><use xlink:href="#3"/><use xlink:href="#11" y="2.171"/></svg><svg x="4745"><use xlink:href="#a"/><use xlink:href="#b" x="35.996" y="2.146"/><use xlink:href="#3"/><text y="3.841" class="c">toastedtoad@frozentundra</text><text x="24.048" y="3.841" class="d">:</text><text x="25.05" y="3.841" class="e">~</text><text x="26.052" y="3.841" class="d">$</text><text x="28.056" y="3.841" class="d">python</text><text x="35.07" y="3.841" class="d">h</text></svg><svg x="4810"><use xlink:href="#a"/><use xlink:href="#b" x="36.996" y="2.146"/><use xlink:href="#3"/><text y="3.841" class="c">toastedtoad@frozentundra</text><text x="24.048" y="3.841" class="d">:</text><text x="25.05" y="3.841" class="e">~</text><text x="26.052" y="3.841" class="d">$</text><text x="28.056" y="3.841" class="d">python</text><text x="35.07" y="3.841" class="d">he</text></svg><svg x="4875"><use xlink:href="#a"/><use xlink:href="#b" x="49.996" y="2.146"/><use xlink:href="#3"/><use xlink:href="#12" y="2.171"/></svg><svg x="4940"><use xlink:href="#a"/><use xlink:href="#b" x="-.004" y="4.317"/><use xlink:href="#3"/><use xlink:href="#12" y="2.171"/></svg><svg x="5005"><use xlink:href="#a"/><use xlink:href="#b" x="-.004" y="6.488"/><use xlink:href="#3"/><use xlink:href="#12" y="2.171"/><use xlink:href="#13" y="4.342"/></svg><svg x="5070"><use xlink:href="#a"/><use xlink:href="#b" x="27.996" y="6.488"/><use xlink:href="#3"/><use xlink:href="#12" y="2.171"/><use xlink:href="#13" y="4.342"/><use xlink:href="#1" y="6.513"/></svg></svg></g></g></svg></svg>